# xmcd CD database file
#
# Track frame offsets:
#	150
#	15366
#	31236
#	44297
#	59369
#	72187
#	89508
#	106786
#	116185
#	135136
#
# Disc length: 1993 seconds
#
# Revision: 0
# Processed by: cddbd v1.5.2PL0 Copyright (c) Steve Scherf et al.
# Submitted via: CDex 1.70beta2
#
DISCID=7807c70a
DTITLE=Tom Passamonte - Back Into Your Life
DYEAR=2001
DGENRE=Blues
TTITLE0=Back Into Your Life
TTITLE1=World of Our Own
TTITLE2=Over and Over
TTITLE3=Who Locked Your Heart Away
TTITLE4=So Blue
TTITLE5=Blue Eyed Soul
TTITLE6=On Certain Days
TTITLE7=So How Come
TTITLE8=Change My Life
TTITLE9=Sleep Walk
EXTD=YEAR: 2001
EXTT0=
EXTT1=
EXTT2=
EXTT3=
EXTT4=
EXTT5=
EXTT6=
EXTT7=
EXTT8=
EXTT9=
PLAYORDER=
